<svg xmlns="http://www.w3.org/2000/svg" width="72" height="72" viewBox="0 0 72 72"><path fill="#F29600" d="M0 0h72v72H0z"/><g fill="#FFF"><path d="M26.817 50.498a5.297 5.297 0 0 1-5.31 5.296 5.294 5.294 0 0 1-5.298-5.296c0-2.919 2.375-5.31 5.298-5.31a5.318 5.318 0 0 1 5.31 5.31zM42.211 55.498h-6.98a18.987 18.987 0 0 0-5.571-13.15c-3.515-3.522-8.156-5.5-13.108-5.59v-6.957c14.064.19 25.471 11.612 25.659 25.697z"/><path d="M55.791 55.498h-6.963c-.192-17.745-14.559-32.146-32.263-32.338v-6.955c21.545.196 39.034 17.714 39.226 39.293z"/></g></svg>