<svg xmlns="http://www.w3.org/2000/svg" width="24" height="44" viewBox="0 0 24 44"><path fill="none" d="M0 0h24v22H0z"/><path fill="#212121" d="M16.93 14.205a8.866 8.866 0 0 0 1.795-5.344C18.725 3.976 14.749 0 9.862 0S1 3.976 1 8.861c0 4.887 3.975 8.862 8.861 8.862a8.876 8.876 0 0 0 5.345-1.796L21.277 22l1.722-1.723-6.069-6.072zm.022-5.344a7.097 7.097 0 0 1-7.09 7.09c-3.908 0-7.089-3.18-7.089-7.09 0-3.91 3.181-7.09 7.089-7.09 3.909 0 7.09 3.182 7.09 7.09z"/><g><path fill="none" d="M0 22h24v22H0z"/><path fill="#EB0A1E" d="M16.93 36.205a8.866 8.866 0 0 0 1.795-5.344c0-4.885-3.976-8.861-8.863-8.861S1 25.977 1 30.861c0 4.887 3.975 8.861 8.861 8.861a8.875 8.875 0 0 0 5.345-1.795L21.277 44l1.722-1.723-6.069-6.072zm.022-5.344c0 3.91-3.181 7.09-7.09 7.09-3.908 0-7.089-3.18-7.089-7.09s3.181-7.09 7.089-7.09c3.909 0 7.09 3.182 7.09 7.09z"/></g></svg>